<svg xmlns="http://www.w3.org/2000/svg" width="24" height="24" viewBox="0 0 24 24">
  <path d="M16.05,4 C18.822,4 21,6.17799981 21,8.94999981 C21,12.8700831 18.1650696,16.4595453 12.4952089,19.7183866 C12.1865631,19.8957855 11.8068787,19.8957239 11.4982905,19.7182247 C5.83276351,16.4594265 3,12.8700182 3,8.95 C3,6.178 5.178,4 7.95,4 C9.65,4 11,4.66666667 12,6 C13,4.66666667 14.35,4 16.05,4 Z M19,8.94999981 C19,7.28256937 17.7174306,6 16.05,6 C14,6 12.1999998,8.14999962 12,8.14999962 C11.8000002,8.14999962 10,6 7.95,6 C6.2825695,6 5,7.2825695 5,8.95 C5,11.9199876 7.23146692,14.8458079 11.9970833,17.6924565 C16.766704,14.8456236 19,11.9196753 19,8.94999981 Z"/>
</svg>
