<svg xmlns="http://www.w3.org/2000/svg" width="24" height="24" viewBox="0 0 24 24">
  <path d="M13.2675644,13 C13.6133738,13.5978014 14.2597176,14 15,14 C15.7402824,14 16.3866262,13.5978014 16.7324356,13 L21,13 L21,11 L16.7324356,11 C16.3866262,10.4021986 15.7402824,10 15,10 C14.2597176,10 13.6133738,10.4021986 13.2675644,11 L3,11 L3,13 L13.2675644,13 Z M6.26756439,7 C6.61337381,7.59780137 7.25971764,8 8,8 C8.74028236,8 9.38662619,7.59780137 9.73243561,7 L21,7 L21,5 L9.73243561,5 C9.38662619,4.40219863 8.74028236,4 8,4 C7.25971764,4 6.61337381,4.40219863 6.26756439,5 L3,5 L3,7 L6.26756439,7 Z M6.26756439,19 C6.61337381,19.5978014 7.25971764,20 8,20 C8.74028236,20 9.38662619,19.5978014 9.73243561,19 L21,19 L21,17 L9.73243561,17 C9.38662619,16.4021986 8.74028236,16 8,16 C7.25971764,16 6.61337381,16.4021986 6.26756439,17 L3,17 L3,19 L6.26756439,19 Z"/>
</svg>
